<svg width="20" height="18" viewBox="0 0 20 18" fill="none" xmlns="http://www.w3.org/2000/svg">
<path d="M2.0706 7.50425L2.07077 8.64639L2.07136 12.5463L2.07139 12.7788C2.07164 14.7691 2.07177 15.7396 2.09835 16.2623C2.11221 16.5348 2.13199 16.6448 2.14788 16.6996C2.15957 16.7399 2.16682 16.752 2.23313 16.863L1.82936 17.1043L2.23314 16.863C2.26965 16.9241 2.3505 17.0235 2.46144 17.1294C2.57157 17.2345 2.67857 17.3147 2.74921 17.3536C2.74923 17.3536 2.74925 17.3536 2.74927 17.3536L2.0706 7.50425ZM2.0706 7.50425L1.23154 8.27915L0.903273 8.58232C0.819821 8.65939 0.759662 8.71122 0.712803 8.74707C0.674068 8.77671 0.6523 8.78927 0.642757 8.79411C0.640735 8.79402 0.638171 8.79387 0.635007 8.7936C0.627364 8.79295 0.617026 8.79173 0.603088 8.78951C0.602303 8.78907 0.601445 8.78859 0.600515 8.78804C0.586773 8.78003 0.56784 8.76632 0.548334 8.74785C0.54055 8.74048 0.533788 8.73341 0.528057 8.72694C0.573792 8.66917 0.645485 8.58733 0.757178 8.46927C1.17744 8.02506 2.04255 7.19391 3.8015 5.50401C4.02741 5.28697 4.26807 5.05576 4.52442 4.80938M2.0706 7.50425L4.52442 4.80938M4.52442 4.80938C6.54271 2.86968 7.57116 1.88214 8.13398 1.36009C8.67427 0.858934 8.7485 0.823609 8.82133 0.788953C8.82515 0.787133 8.82897 0.785315 8.83286 0.783431C9.14393 0.63258 9.37993 0.554103 9.60903 0.513784L9.60876 0.513831C9.60876 0.513838 9.61297 0.513165 9.62252 0.512119C9.63284 0.510989 9.64651 0.509737 9.66363 0.508479C9.69801 0.505954 9.74106 0.503787 9.79023 0.502275C9.88883 0.499243 10.0025 0.499131 10.105 0.502609L10.122 0.00289602L10.1051 0.502609C10.3948 0.51243 10.504 0.531752 10.7315 0.605095L10.7315 0.605113C10.766 0.616232 10.7963 0.625844 10.8233 0.634409C10.9526 0.675487 11.006 0.692438 11.0848 0.735658C11.1835 0.789867 11.3288 0.892322 11.6192 1.14637C12.1555 1.61569 13.0922 2.51639 14.996 4.34696C15.1554 4.50028 15.3217 4.66012 15.495 4.82678C15.749 5.07099 15.9876 5.30023 16.2115 5.51549C17.964 7.19975 18.8258 8.02795 19.2443 8.47068C19.3553 8.58804 19.4266 8.66945 19.472 8.72693C19.4663 8.7334 19.4595 8.74048 19.4517 8.74785C19.4322 8.76631 19.4133 8.78003 19.3996 8.78804C19.3986 8.78858 19.3978 8.78907 19.397 8.78951C19.3831 8.79173 19.3727 8.79295 19.3651 8.7936C19.3619 8.79387 19.3593 8.79402 19.3573 8.79411C19.3478 8.78927 19.326 8.77671 19.2873 8.74707C19.2404 8.71122 19.1803 8.65939 19.0968 8.58232L18.7685 8.27915L17.9295 7.50425L17.9293 8.64639L17.9287 12.5463C17.9287 12.6318 17.9287 12.7156 17.9287 12.7976C17.9284 14.7783 17.9283 15.7437 17.9015 16.2644C17.8876 16.5364 17.8676 16.646 17.8515 16.7009C17.8395 16.7418 17.8317 16.755 17.7666 16.8645L17.7636 16.8696L18.1775 17.1158L17.7635 16.8696C17.7132 16.9543 17.6149 17.0688 17.4841 17.1804C17.3538 17.2915 17.2222 17.3732 17.1243 17.413C17.1243 17.413 17.1243 17.4131 17.1243 17.4131L16.9458 17.4856L4.52442 4.80938ZM11.0601 0.960971C10.9194 0.883778 10.6944 0.80014 10.5329 0.759673L10.5328 0.759655L10.8196 1.3993M11.0601 0.960971L10.8196 1.3993M11.0601 0.960971C11.0601 0.960955 11.06 0.960939 11.06 0.960922L10.8196 1.3993M11.0601 0.960971C11.1073 0.986855 11.1481 1.01923 11.1625 1.03065L11.1637 1.03163C11.1866 1.04977 11.2122 1.07118 11.2389 1.09407C11.2927 1.14024 11.3624 1.20229 11.4456 1.27771C11.6127 1.4291 11.8432 1.6428 12.1277 1.90976C12.6973 2.44416 13.4891 3.19759 14.4342 4.10527L14.0878 4.46589C12.199 2.65185 10.9268 1.45813 10.8196 1.3993M17.554 16.734L17.1122 16.5L17.5539 16.7342C17.5539 16.7341 17.554 16.7341 17.554 16.734ZM17.554 16.734C17.4827 16.8686 17.3519 17.0233 17.2222 17.1149M17.554 16.734L17.2222 17.1149M13.122 16.8051V16.3051L13.1192 16.3051L13.122 16.8051ZM13.122 16.8051H13.622V16.8023L13.122 16.8051ZM17.2222 17.1149L17.2221 17.115C17.1595 17.1591 17.0766 17.2084 16.9472 17.2381C16.8513 17.26 16.7391 17.2688 16.6112 17.2746C16.347 17.2865 15.87 17.2896 14.9757 17.2946L13.1248 17.3051L12.622 17.3079V16.8051V14.347C12.622 13.5231 12.6184 12.8954 12.6113 12.4581C12.6078 12.2391 12.6034 12.0709 12.5983 11.9508C12.5948 11.8693 12.5914 11.8243 12.5898 11.8044C12.5887 11.79 12.5886 11.7886 12.5902 11.7959M17.2222 17.1149L12.5902 11.7959M12.5902 11.7959C12.5902 11.7959 12.5902 11.7959 12.5902 11.7959L13.0789 11.69L12.5902 11.7959ZM7.37809 17.303L6.87807 17.303L5.07319 17.3029C5.0251 17.3029 4.97806 17.3029 4.93206 17.3029C4.03787 17.303 3.53559 17.303 3.24511 17.2683C3.08546 17.2492 2.91434 17.213 2.76115 17.1099C2.62593 17.0189 2.54236 16.8954 2.50646 16.8424C2.50302 16.8373 2.50002 16.8329 2.49746 16.8292C2.49746 16.8292 2.49745 16.8292 2.49745 16.8292L2.40887 16.7017L2.31955 16.573V16.4164V11.9263V7.43615V7.2231L2.47321 7.07553L5.56589 4.10527C6.51619 3.19259 7.30795 2.43918 7.87631 1.90596C8.16024 1.63958 8.38991 1.42674 8.55631 1.27601C8.63921 1.20092 8.70873 1.13912 8.76246 1.09309C8.78909 1.07027 8.81467 1.0489 8.83761 1.03076L8.83873 1.02987C8.85331 1.01833 8.89391 0.986206 8.94088 0.960424L7.37809 17.303ZM7.37809 17.303V16.803V17.303ZM8.66139 10.7184C8.5866 10.7224 8.54788 10.7261 8.53438 10.7274L8.66139 10.7184ZM8.66139 10.7184C8.75234 10.7135 8.87171 10.7093 9.0121 10.7058M8.66139 10.7184L9.0121 10.7058M9.0121 10.7058C9.29227 10.699 9.64535 10.6955 10 10.6955M9.0121 10.7058L10 10.6955M10 10.6955C10.3547 10.6955 10.7078 10.699 10.988 10.7058M10 10.6955L10.988 10.7058M10.988 10.7058C11.1284 10.7093 11.2477 10.7135 11.3387 10.7184M10.988 10.7058L11.3387 10.7184M11.3387 10.7184C11.4135 10.7224 11.4522 10.7261 11.4657 10.7274M11.3387 10.7184L11.4657 10.7274M11.4657 10.7274C11.4711 10.7279 11.4725 10.7281 11.4705 10.7277M11.4657 10.7274L11.4705 10.7277M11.4705 10.7277L11.5689 10.2374L11.4705 10.7277ZM0.519253 8.73913C0.519204 8.73888 0.519154 8.73862 0.519104 8.73837C0.519154 8.73862 0.519204 8.73888 0.519253 8.73913ZM19.4808 8.73913C19.4809 8.73887 19.4809 8.73861 19.481 8.73835L19.4808 8.73913ZM6.87809 16.303V16.7972L6.87811 16.303H6.87809ZM11.6205 10.9911L11.6204 10.991L12.251 11.576C12.1923 11.453 12.1158 11.3275 11.996 11.2174C11.8778 11.1086 11.7466 11.0417 11.6205 10.9911ZM8.43122 10.2374L8.52954 10.7277L8.52956 10.7277L8.43122 10.2374ZM6.92121 11.69L7.40986 11.7959C7.40987 11.7959 7.40987 11.7959 7.40988 11.7959L6.92121 11.69Z" fill="#C60000" stroke="#C60000"/>
</svg>
