<svg width="18" height="20" viewBox="0 0 18 20" fill="none" xmlns="http://www.w3.org/2000/svg">
<path d="M8.36523 0.944006L8.36522 0.944007C7.87293 1.01103 7.4784 1.13313 7.01873 1.36031L7.06303 1.44996L7.01872 1.36031C5.48578 2.11797 4.58723 3.79873 4.76397 5.56417C4.86895 6.61272 5.22252 7.44306 5.90092 8.23299C6.28951 8.68545 6.88317 9.113 7.4378 9.33992C9.28174 10.0944 11.3023 9.45802 12.4645 7.76431C13.3806 6.42916 13.5136 4.59127 12.7948 3.16993C11.9802 1.55908 10.2405 0.688772 8.36523 0.944006ZM10.1102 7.97414L10.1539 8.06408L10.1102 7.97414C9.41848 8.31035 8.58152 8.31035 7.8898 7.97414L7.8898 7.97414C7.56324 7.81544 7.39726 7.69719 7.12139 7.42569L7.12138 7.42569C5.88977 6.21369 5.9008 4.05034 7.12584 2.99145C7.80654 2.40306 8.7787 2.18913 9.74156 2.42429C10.4776 2.60404 11.1401 3.12578 11.4763 3.78877L11.5655 3.74355L11.4763 3.78878C11.7153 4.25995 11.7964 4.61501 11.7922 5.17947C11.7858 6.06067 11.4628 6.85084 10.8786 7.42569L10.9488 7.49696L10.8786 7.42569C10.6027 7.69719 10.4368 7.81544 10.1102 7.97414ZM0.910908 17.8669L1.01076 17.8723L0.910908 17.8669C0.891269 18.2328 0.894185 18.481 0.951952 18.6576C0.982076 18.7497 1.02734 18.8238 1.09142 18.8856C1.15422 18.9462 1.23113 18.991 1.31874 19.0306L1.35986 18.9394L1.31875 19.0306C1.36979 19.0536 1.42876 19.0649 1.58666 19.0733C1.74703 19.0819 2.02272 19.0876 2.51775 19.0916C3.50883 19.0994 5.38708 19.1 9 19.1C12.6129 19.1 14.4912 19.0994 15.4823 19.0916C15.9773 19.0876 16.253 19.0819 16.4133 19.0733C16.5712 19.0649 16.6302 19.0536 16.6813 19.0306C16.7689 18.991 16.8458 18.9462 16.9086 18.8856C16.9727 18.8238 17.0179 18.7497 17.048 18.6576C17.1058 18.481 17.1087 18.2328 17.0891 17.8669C16.991 16.0399 16.358 14.5749 15.2234 13.5192C14.0901 12.4647 12.4664 11.8277 10.403 11.6357L10.3937 11.7353L10.403 11.6357C9.72064 11.5722 9.0374 11.5554 8.32427 11.5844C5.7447 11.6895 3.68622 12.4736 2.45357 13.8451C1.50607 14.8994 0.998866 16.2287 0.910908 17.8669ZM2.49877 16.9057L2.4011 16.8842L2.49877 16.9057C2.82663 15.414 3.66136 14.3627 5.02463 13.7226C5.7875 13.3643 6.62232 13.1567 7.76719 13.0444C8.2853 12.9936 9.55947 12.9853 10.066 13.0295C12.4457 13.237 13.9539 13.9609 14.8345 15.2794L14.9176 15.2239L14.8345 15.2794C15.2341 15.8778 15.5356 16.7577 15.6021 17.5248L15.6162 17.6869H9H2.38379L2.39786 17.5248C2.41031 17.3813 2.45574 17.1015 2.49877 16.9057Z" fill="#C60000" stroke="#C60000" stroke-width="0.2"/>
</svg>
