<svg width="17" height="16" viewBox="0 0 17 16" fill="none" xmlns="http://www.w3.org/2000/svg">
<path fill-rule="evenodd" clip-rule="evenodd" d="M7.66176 0.0430752C5.64033 0.252984 3.69615 1.29007 2.38134 2.85981C-0.495141 6.29398 -0.0204223 11.362 3.44439 14.2079C4.56065 15.1248 5.95132 15.7343 7.3955 15.9395C7.96761 16.0208 9.0776 16.0201 9.64189 15.938C11.378 15.6856 12.916 14.9125 14.164 13.6648C15.3938 12.4352 16.1874 10.8615 16.4345 9.16241C16.5198 8.57485 16.5222 7.48135 16.4392 6.89793C16.2362 5.46935 15.6255 4.06828 14.7247 2.9637C14.4408 2.61563 13.7954 1.9783 13.4719 1.72656C11.7997 0.425365 9.73665 -0.172391 7.66176 0.0430752ZM9.68904 1.35643C12.4665 1.8447 14.6875 4.08052 15.1642 6.86821C15.2598 7.42715 15.2779 8.38768 15.203 8.92593C14.7873 11.9143 12.4131 14.2879 9.42399 14.7036C8.88561 14.7784 7.92485 14.7603 7.36578 14.6647C5.25561 14.3041 3.41304 12.9305 2.46151 11.0088C1.3756 8.81556 1.54364 6.27564 2.90956 4.23711C3.99844 2.612 5.75453 1.54424 7.75267 1.2922C8.16574 1.24013 9.22774 1.27536 9.68904 1.35643ZM8.34786 3.38034C8.16678 3.43517 8.02763 3.54712 7.95795 3.69393C7.90006 3.81587 7.89166 4.10869 7.89166 6.001C7.89166 8.46248 7.87928 8.36895 8.22936 8.55404C8.41164 8.65041 8.41474 8.65057 9.90439 8.63867C11.3367 8.62721 11.4014 8.62329 11.5122 8.54058C11.9045 8.2476 11.9142 7.74378 11.5325 7.48883C11.3937 7.3961 11.3653 7.39397 10.2697 7.39397H9.14899L9.13687 5.58657L9.12475 3.77918L9.02439 3.63847C8.9272 3.50228 8.64668 3.33943 8.51865 3.3449C8.48417 3.34636 8.4073 3.36233 8.34786 3.38034Z" fill="#C60000"/>
</svg>
