<svg width="17" height="12" viewBox="0 0 17 12" fill="none" xmlns="http://www.w3.org/2000/svg">
<path fill-rule="evenodd" clip-rule="evenodd" d="M1.20501 0.0533887C0.643992 0.195371 0.203955 0.615445 0.0559589 1.15026C-0.018653 1.41989 -0.018653 10.584 0.0559589 10.8536C0.20588 11.3953 0.646813 11.8117 1.21928 11.952C1.3915 11.9943 2.24493 11.9999 8.50316 11.9999C16.236 11.9999 15.7535 12.0109 16.144 11.8247C16.378 11.7131 16.6718 11.4418 16.7958 11.2229C17.0117 10.8416 16.9999 11.1444 16.9999 6.00194C16.9999 1.90685 16.9936 1.30646 16.9491 1.14554C16.7999 0.60673 16.3576 0.191716 15.782 0.0506082C15.4996 -0.0186492 1.47896 -0.0159625 1.20501 0.0533887ZM15.5616 1.0278C15.5858 1.0423 14.2736 2.13327 12.0621 3.93724C8.6476 6.72256 8.52118 6.82197 8.44747 6.77979C8.40548 6.75574 6.80428 5.45681 4.8893 3.89329C2.75171 2.14801 1.42214 1.04164 1.44544 1.02755C1.49532 0.997408 15.5113 0.997626 15.5616 1.0278ZM8.31351 7.96542C8.4391 8.01534 8.66931 7.99797 8.77652 7.93046C8.81784 7.90444 10.4462 6.58171 12.3951 4.99103L15.9385 2.09894L15.9298 6.39108C15.9212 10.6711 15.921 10.6835 15.8528 10.7695C15.8151 10.817 15.7431 10.8848 15.6927 10.9202L15.601 10.9846H8.50316H1.40531L1.31364 10.9202C1.26322 10.8848 1.1912 10.817 1.15356 10.7695C1.08532 10.6835 1.08509 10.6711 1.07649 6.39027L1.06783 2.09731L4.63752 5.01022C6.60086 6.61232 8.25503 7.94218 8.31351 7.96542Z" fill="black" fill-opacity="0.2"/>
</svg>
