<svg width="13" height="16" viewBox="0 0 13 16" fill="none" xmlns="http://www.w3.org/2000/svg">
<path fill-rule="evenodd" clip-rule="evenodd" d="M1.5805 0.0424532C1.31737 0.108297 1.1204 0.220734 0.921998 0.418391C0.717654 0.621984 0.594122 0.846172 0.537216 1.11677C0.487216 1.35448 0.487779 14.6456 0.53781 14.8793C0.652716 15.4162 1.08422 15.8477 1.62109 15.9626C1.85416 16.0125 11.3344 16.013 11.5712 15.9632C12.1015 15.8515 12.5444 15.4087 12.6552 14.8793C12.6798 14.7618 12.6899 13.1766 12.6899 9.41683C12.6899 4.62945 12.6851 4.11033 12.64 4.01992C12.5712 3.88198 8.82716 0.133391 8.68332 0.0584532C8.57069 -0.000234272 8.46988 -0.00189052 5.15206 0.000703228C2.52987 0.00273448 1.70047 0.0124532 1.5805 0.0424532ZM8.00238 2.16839C8.00238 2.96926 8.01479 3.45923 8.03782 3.56683C8.15272 4.1037 8.58422 4.5352 9.1211 4.65011C9.22869 4.67314 9.71866 4.68555 10.5195 4.68555H11.7524V9.6868C11.7524 14.6375 11.7518 14.6893 11.6895 14.8114C11.649 14.8908 11.5826 14.9571 11.5032 14.9976C11.3812 15.0599 11.3289 15.0605 6.59382 15.0605H1.80775L1.68309 14.9905C1.60994 14.9494 1.53394 14.8724 1.49915 14.8042C1.44147 14.6912 1.4399 14.5063 1.44119 7.99148C1.44244 1.60308 1.44509 1.29005 1.49878 1.1893C1.52972 1.1312 1.61 1.05042 1.67715 1.00977L1.79925 0.935859L4.90081 0.935703L8.00238 0.935547V2.16839ZM10.1874 3.74073C9.32635 3.74886 9.3071 3.74767 9.18398 3.67848C8.94966 3.5468 8.93988 3.49923 8.93988 2.49164V1.60777L10.0026 2.67011L11.0653 3.73242L10.1874 3.74073ZM3.55741 6.68748C3.42547 6.75714 3.31487 6.94151 3.31487 7.09179C3.31487 7.24686 3.42541 7.42689 3.56406 7.49764C3.68503 7.55936 3.74256 7.56054 6.59613 7.56054C9.44969 7.56054 9.50723 7.55936 9.62819 7.49764C9.76685 7.42689 9.87738 7.24686 9.87738 7.09179C9.87738 6.93673 9.76685 6.7567 9.62819 6.68595C9.50713 6.6242 9.4511 6.62308 6.58957 6.62442C3.74872 6.62576 3.67125 6.62739 3.55741 6.68748ZM3.55741 8.56248C3.42547 8.63214 3.31487 8.81651 3.31487 8.96679C3.31487 9.12186 3.42541 9.30189 3.56406 9.37264C3.68503 9.43436 3.74256 9.43554 6.59613 9.43554C9.44969 9.43554 9.50723 9.43436 9.62819 9.37264C9.76685 9.30189 9.87738 9.12186 9.87738 8.96679C9.87738 8.81173 9.76685 8.6317 9.62819 8.56095C9.50713 8.4992 9.4511 8.49808 6.58957 8.49942C3.74872 8.50076 3.67125 8.50239 3.55741 8.56248ZM3.55741 10.4375C3.42547 10.5071 3.31487 10.6915 3.31487 10.8418C3.31487 10.9969 3.42541 11.1769 3.56406 11.2476C3.68503 11.3094 3.74256 11.3105 6.59613 11.3105C9.44969 11.3105 9.50723 11.3094 9.62819 11.2476C9.76685 11.1769 9.87738 10.9969 9.87738 10.8418C9.87738 10.6867 9.76685 10.5067 9.62819 10.436C9.50713 10.3742 9.4511 10.3731 6.58957 10.3744C3.74872 10.3758 3.67125 10.3774 3.55741 10.4375ZM3.55741 12.3125C3.42547 12.3821 3.31487 12.5665 3.31487 12.7168C3.31487 12.8719 3.42541 13.0519 3.56406 13.1226C3.68381 13.1837 3.74466 13.1855 5.65863 13.1855C7.5726 13.1855 7.63344 13.1837 7.75319 13.1226C7.89185 13.0519 8.00238 12.8719 8.00238 12.7168C8.00238 12.5617 7.89185 12.3817 7.75319 12.311C7.63335 12.2498 7.57404 12.2481 5.65206 12.2494C3.74466 12.2508 3.67009 12.253 3.55741 12.3125Z" fill="#C60000"/>
</svg>
