<svg width="19" height="15" viewBox="0 0 19 15" fill="none" xmlns="http://www.w3.org/2000/svg">
<path fill-rule="evenodd" clip-rule="evenodd" d="M8.96306 0.0207984C7.77232 0.238954 6.787 1.15435 6.46547 2.34123C6.36011 2.73013 6.35247 3.46151 6.44976 3.84612C6.64508 4.61829 7.10353 5.29566 7.71885 5.72121C7.9656 5.89188 8.43095 6.10359 8.74266 6.18698C9.14176 6.29378 9.85824 6.29378 10.2573 6.18698C10.569 6.10359 11.0344 5.89188 11.2812 5.72121C11.8965 5.29566 12.3549 4.61829 12.5502 3.84612C12.6475 3.46151 12.6399 2.73013 12.5345 2.34123C12.2425 1.26316 11.468 0.461182 10.3806 0.110879C10.1292 0.0298632 10.0051 0.0124773 9.60567 0.00231483C9.34413 -0.00437749 9.05497 0.00394363 8.96306 0.0207984ZM9.98952 1.10322C10.344 1.18725 10.6816 1.38302 10.965 1.66902C11.9612 2.67432 11.6922 4.35891 10.4362 4.98116C9.79519 5.29874 9.20481 5.29874 8.56382 4.98116C7.53877 4.47332 7.13622 3.22529 7.65879 2.17527C7.90536 1.67982 8.46072 1.23473 8.99434 1.10488C9.26868 1.03814 9.71163 1.0374 9.98952 1.10322ZM3.4589 2.97562C3.002 3.09003 2.63108 3.31502 2.28478 3.68777C1.36048 4.68262 1.4955 6.30571 2.57067 7.12472C2.8213 7.31561 3.19447 7.49808 3.47652 7.56755C3.72418 7.62856 4.28292 7.62898 4.53327 7.56836C4.80721 7.50201 5.25503 7.27748 5.49421 7.08652C5.85255 6.80048 6.18557 6.26371 6.29639 5.79362C6.36032 5.52239 6.35335 4.97454 6.2824 4.69594C6.07105 3.86591 5.37705 3.17235 4.56539 2.98005C4.29494 2.91596 3.7065 2.91362 3.4589 2.97562ZM14.4188 2.97962C13.6121 3.18372 12.9265 3.8754 12.7176 4.69594C12.6467 4.97454 12.6397 5.52239 12.7036 5.79362C12.8144 6.26371 13.1474 6.80048 13.5058 7.08652C13.745 7.27748 14.1928 7.50201 14.4667 7.56836C14.7171 7.62898 15.2758 7.62856 15.5235 7.56755C15.8055 7.49808 16.1787 7.31561 16.4293 7.12472C17.3044 6.45815 17.5801 5.223 17.0821 4.20021C16.9823 3.99523 16.8802 3.86181 16.6344 3.61543C16.3122 3.29239 16.1124 3.16594 15.682 3.01284C15.4401 2.92683 14.704 2.90746 14.4188 2.97962ZM4.37123 4.02972C4.72532 4.1249 5.10522 4.49188 5.22572 4.85507C5.30921 5.10683 5.29878 5.47795 5.20085 5.73877C5.09003 6.03391 4.77002 6.35734 4.48043 6.46686C4.01983 6.64107 3.50406 6.54511 3.14938 6.21927C2.44907 5.57589 2.65299 4.43897 3.534 4.07486C3.76804 3.97816 4.11071 3.95964 4.37123 4.02972ZM15.4374 4.06236C16.3349 4.39992 16.5588 5.56863 15.8506 6.21927C15.4959 6.54511 14.9802 6.64107 14.5196 6.46686C14.23 6.35734 13.91 6.03391 13.7991 5.73877C13.7012 5.47795 13.6908 5.10683 13.7743 4.85507C13.8901 4.50607 14.2734 4.12621 14.6042 4.03255C14.8353 3.96718 15.221 3.98099 15.4374 4.06236ZM7.32985 6.63972C6.65375 6.80685 6.01473 7.27496 5.69016 7.8408C5.62109 7.96126 5.56494 8.02231 5.53412 8.01041C5.35338 7.94069 4.78365 7.9135 3.78674 7.92699C2.77307 7.94073 2.66261 7.9483 2.41977 8.021C1.96011 8.15856 1.62935 8.3588 1.27354 8.71488C0.92182 9.06684 0.733119 9.38114 0.582532 9.86567C0.500599 10.1293 0.5 10.144 0.5 11.9017C0.5 13.8489 0.501233 13.8622 0.716141 14.225C0.919284 14.5679 1.25854 14.8312 1.64242 14.9439C1.81446 14.9943 2.60579 15 9.5 15C16.3942 15 17.1855 14.9943 17.3576 14.9439C17.7415 14.8312 18.0807 14.5679 18.2839 14.225C18.4988 13.8622 18.5 13.8489 18.5 11.9017C18.5 10.144 18.4994 10.1293 18.4175 9.86567C18.2669 9.38114 18.0782 9.06684 17.7265 8.71488C17.3706 8.3588 17.0399 8.15856 16.5802 8.021C16.3374 7.9483 16.2269 7.94073 15.2133 7.92699C14.2164 7.9135 13.6466 7.94069 13.4659 8.01041C13.4351 8.02231 13.3789 7.96126 13.3098 7.8408C13.067 7.41749 12.6531 7.04813 12.1676 6.82159C11.6411 6.57595 11.6014 6.5723 9.47545 6.57524C7.79599 6.57755 7.55174 6.58488 7.32985 6.63972ZM11.475 7.69198C11.7738 7.78107 11.9675 7.89452 12.1721 8.10021C12.3768 8.30594 12.4896 8.50062 12.5782 8.80099C12.6281 8.96982 12.635 9.29513 12.635 11.4655V13.9377H9.5H6.36497V11.4655C6.36497 8.78867 6.36162 8.84054 6.55881 8.44931C6.65776 8.25293 6.96841 7.93556 7.15753 7.83762C7.54124 7.6389 7.54159 7.63886 9.48478 7.63681C11.0403 7.63514 11.3096 7.64262 11.475 7.69198ZM5.26419 9.0268C5.29871 9.04924 5.30822 9.58254 5.30822 11.4966V13.9377H3.60502H1.90182L1.78212 13.8573C1.53759 13.6931 1.53924 13.7059 1.53921 12.0039C1.53917 11.1133 1.55411 10.3979 1.5751 10.2867C1.69466 9.65301 2.22071 9.12704 2.84247 9.01957C3.07442 8.97949 5.20121 8.98583 5.26419 9.0268ZM16.1223 9.0177C16.7753 9.12236 17.3021 9.63558 17.4249 10.2867C17.4459 10.3979 17.4608 11.1133 17.4608 12.0039C17.4608 13.7059 17.4624 13.6931 17.2179 13.8573L17.0982 13.9377H15.3947H13.6913L13.7003 11.4856L13.7094 9.03356L13.8327 9.01168C14.0437 8.97418 15.8811 8.97903 16.1223 9.0177Z" fill="#C60000"/>
</svg>
