<svg width="19" height="19" viewBox="0 0 19 19" fill="none" xmlns="http://www.w3.org/2000/svg">
<path fill-rule="evenodd" clip-rule="evenodd" d="M8.61968 0.0218618C6.39364 0.238306 4.35745 1.19743 2.7768 2.77411C1.27372 4.27342 0.366867 6.11996 0.048224 8.33021C0.0106338 8.59104 0 9.75082 0 13.5907V18.5167L0.088231 18.6586C0.136753 18.7367 0.244318 18.8454 0.327195 18.9003L0.477964 19H5.40715C9.24976 19 10.4101 18.9894 10.671 18.9518C12.8801 18.6334 14.7134 17.7341 16.2228 16.2285C17.6997 14.7552 18.6008 12.9499 18.9309 10.8025C19.023 10.2036 19.023 8.79901 18.9309 8.20009C18.601 6.05409 17.7074 4.26216 16.2277 2.77905C14.7644 1.31231 12.9374 0.39668 10.8383 0.0779991C10.3737 0.00747435 9.09943 -0.0247581 8.61968 0.0218618ZM10.7082 1.56262C12.4245 1.83074 13.9377 2.60049 15.1695 3.8322C16.411 5.07354 17.1716 6.57624 17.4461 8.33021C17.4913 8.61881 17.5101 8.96341 17.5101 9.50128C17.5101 10.0392 17.4913 10.3838 17.4461 10.6724C17.1716 12.4263 16.411 13.929 15.1695 15.1704C13.945 16.3948 12.5053 17.1314 10.7253 17.4445C10.4136 17.4993 9.86611 17.5079 5.91955 17.5205L1.46557 17.5346L1.4797 13.0811C1.49223 9.13502 1.50086 8.58755 1.5557 8.27597C1.86876 6.49608 2.60551 5.05659 3.83007 3.8322C5.19946 2.46294 6.82312 1.7065 8.84913 1.49392C9.1516 1.46217 10.3482 1.50641 10.7082 1.56262ZM8.80113 5.22883C7.75217 5.39085 6.94125 6.04498 6.8396 6.81119C6.77869 7.27044 7.11169 7.64611 7.58348 7.65035C7.83293 7.65262 7.91811 7.595 8.1802 7.24683C8.52617 6.78722 8.8411 6.64918 9.46262 6.68472C10.1627 6.72472 10.5604 7.10147 10.4869 7.65515C10.4341 8.05339 10.2341 8.31099 9.55661 8.85292C9.00094 9.29748 8.75268 9.63936 8.58187 10.1953C8.53141 10.3594 8.51517 10.5386 8.51487 10.9326C8.51446 11.5149 8.56038 11.6612 8.77663 11.7669C8.92925 11.8414 9.28593 11.8615 9.5214 11.8088C9.76345 11.7547 9.94523 11.5745 9.94731 11.3867C9.94802 11.321 9.96308 11.1054 9.98078 10.9076C10.0245 10.4188 10.1482 10.1855 10.5566 9.82238C11.3938 9.07788 11.6324 8.80403 11.8954 8.28571C12.5543 6.98708 11.8267 5.66741 10.2386 5.28106C9.94709 5.21013 9.11743 5.18002 8.80113 5.22883ZM8.95413 12.7874C8.46598 12.9457 8.20467 13.3317 8.24505 13.8347C8.31123 14.6592 9.26801 15.0253 9.87436 14.4582C10.0749 14.2707 10.2062 13.9862 10.2062 13.7395C10.2062 13.3862 9.92452 12.9648 9.59673 12.8279C9.40707 12.7487 9.1278 12.7311 8.95413 12.7874Z" fill="#C60000"/>
</svg>
