<svg width="20" height="18" viewBox="0 0 20 18" fill="none" xmlns="http://www.w3.org/2000/svg">
<mask id="path-1-inside-1_38_687" fill="white">
<path fill-rule="evenodd" clip-rule="evenodd" d="M9.5225 0.0213281C9.23637 0.0716689 8.95559 0.168221 8.61467 0.333546C8.30946 0.481566 8.21019 0.573651 4.17795 4.44888C-0.310474 8.76261 -0.041089 8.47787 0.0284915 8.8348C0.0633793 9.01375 0.30693 9.24429 0.49733 9.27867C0.768277 9.32755 0.892842 9.27255 1.2425 8.94964L1.57077 8.64647L1.57136 12.5464C1.57198 16.8224 1.56691 16.7229 1.80394 17.1195C1.94041 17.3478 2.26549 17.6581 2.50822 17.7916C2.91602 18.016 2.557 18.0064 10.1259 17.9954L17.0439 17.9855L17.3126 17.8762C17.634 17.7455 18.0202 17.4162 18.1933 17.1252C18.4336 16.7211 18.4281 16.8285 18.4287 12.5464L18.4293 8.64647L18.7576 8.94964C19.1072 9.27255 19.2318 9.32755 19.5027 9.27867C19.6931 9.24429 19.9367 9.01375 19.9716 8.8348C20.0411 8.4781 20.3083 8.76066 15.8416 4.46634C11.3698 0.167245 11.5838 0.354456 10.8849 0.129217C10.6078 0.0398727 10.452 0.0140829 10.122 0.00289602C9.89393 -0.00483717 9.6242 0.00345916 9.5225 0.0213281ZM10.4114 1.24467C10.5393 1.27673 10.723 1.34629 10.8196 1.3993C10.9268 1.45813 12.199 2.65185 14.0878 4.46589L17.1805 7.43615L17.1804 11.9037C17.1804 16.0828 17.176 16.3795 17.1122 16.5C17.0747 16.5708 16.9944 16.6637 16.9338 16.7064C16.8266 16.7821 16.7746 16.7845 14.9728 16.7946L13.122 16.8051V14.347C13.122 12.6975 13.1078 11.8235 13.0789 11.69C12.9264 10.9865 12.3002 10.3841 11.5689 10.2374C11.2901 10.1815 8.70993 10.1815 8.43122 10.2374C7.6999 10.3841 7.07372 10.9865 6.92121 11.69C6.89229 11.8235 6.87809 12.6972 6.87809 14.3459V16.803L5.07321 16.8029C3.06115 16.8028 3.09031 16.8063 2.90814 16.544L2.81955 16.4164V11.9263V7.43615L5.91224 4.46589C7.81147 2.64183 9.07306 1.45824 9.18147 1.39874C9.54989 1.19651 9.99602 1.14065 10.4114 1.24467ZM11.434 11.455C11.6275 11.5327 11.7145 11.6128 11.7998 11.7914C11.867 11.9321 11.8715 12.0941 11.8724 14.3723L11.8732 16.803H10H8.12687V14.3804C8.12687 12.2853 8.13499 11.9392 8.18689 11.8197C8.26775 11.6336 8.35095 11.5499 8.53663 11.4678C8.67805 11.4054 8.81499 11.3988 9.99153 11.3981C11.0735 11.3974 11.3143 11.4069 11.434 11.455Z"/>
</mask>
<path fill-rule="evenodd" clip-rule="evenodd" d="M9.5225 0.0213281C9.23637 0.0716689 8.95559 0.168221 8.61467 0.333546C8.30946 0.481566 8.21019 0.573651 4.17795 4.44888C-0.310474 8.76261 -0.041089 8.47787 0.0284915 8.8348C0.0633793 9.01375 0.30693 9.24429 0.49733 9.27867C0.768277 9.32755 0.892842 9.27255 1.2425 8.94964L1.57077 8.64647L1.57136 12.5464C1.57198 16.8224 1.56691 16.7229 1.80394 17.1195C1.94041 17.3478 2.26549 17.6581 2.50822 17.7916C2.91602 18.016 2.557 18.0064 10.1259 17.9954L17.0439 17.9855L17.3126 17.8762C17.634 17.7455 18.0202 17.4162 18.1933 17.1252C18.4336 16.7211 18.4281 16.8285 18.4287 12.5464L18.4293 8.64647L18.7576 8.94964C19.1072 9.27255 19.2318 9.32755 19.5027 9.27867C19.6931 9.24429 19.9367 9.01375 19.9716 8.8348C20.0411 8.4781 20.3083 8.76066 15.8416 4.46634C11.3698 0.167245 11.5838 0.354456 10.8849 0.129217C10.6078 0.0398727 10.452 0.0140829 10.122 0.00289602C9.89393 -0.00483717 9.6242 0.00345916 9.5225 0.0213281ZM10.4114 1.24467C10.5393 1.27673 10.723 1.34629 10.8196 1.3993C10.9268 1.45813 12.199 2.65185 14.0878 4.46589L17.1805 7.43615L17.1804 11.9037C17.1804 16.0828 17.176 16.3795 17.1122 16.5C17.0747 16.5708 16.9944 16.6637 16.9338 16.7064C16.8266 16.7821 16.7746 16.7845 14.9728 16.7946L13.122 16.8051V14.347C13.122 12.6975 13.1078 11.8235 13.0789 11.69C12.9264 10.9865 12.3002 10.3841 11.5689 10.2374C11.2901 10.1815 8.70993 10.1815 8.43122 10.2374C7.6999 10.3841 7.07372 10.9865 6.92121 11.69C6.89229 11.8235 6.87809 12.6972 6.87809 14.3459V16.803L5.07321 16.8029C3.06115 16.8028 3.09031 16.8063 2.90814 16.544L2.81955 16.4164V11.9263V7.43615L5.91224 4.46589C7.81147 2.64183 9.07306 1.45824 9.18147 1.39874C9.54989 1.19651 9.99602 1.14065 10.4114 1.24467ZM11.434 11.455C11.6275 11.5327 11.7145 11.6128 11.7998 11.7914C11.867 11.9321 11.8715 12.0941 11.8724 14.3723L11.8732 16.803H10H8.12687V14.3804C8.12687 12.2853 8.13499 11.9392 8.18689 11.8197C8.26775 11.6336 8.35095 11.5499 8.53663 11.4678C8.67805 11.4054 8.81499 11.3988 9.99153 11.3981C11.0735 11.3974 11.3143 11.4069 11.434 11.455Z" fill="#C60000"/>
<path d="M9.5225 0.0213281L9.34944 -0.963584L9.34922 -0.963545L9.5225 0.0213281ZM8.61467 0.333546L8.17833 -0.566235L8.17831 -0.566223L8.61467 0.333546ZM4.17795 4.44888L3.48502 3.72788L3.48502 3.72788L4.17795 4.44888ZM0.0284915 8.8348L-0.953032 9.02614L-0.95303 9.02616L0.0284915 8.8348ZM0.49733 9.27867L0.319604 10.2628L0.319803 10.2628L0.49733 9.27867ZM1.2425 8.94964L1.92096 9.68428L1.92096 9.68427L1.2425 8.94964ZM1.57077 8.64647L2.57077 8.64632L2.57043 6.36203L0.892313 7.91183L1.57077 8.64647ZM1.57136 12.5464L2.57136 12.5463V12.5462L1.57136 12.5464ZM1.80394 17.1195L2.66234 16.6065L2.66232 16.6065L1.80394 17.1195ZM2.50822 17.7916L2.02612 18.6678L2.02622 18.6678L2.50822 17.7916ZM10.1259 17.9954L10.1274 18.9954L10.1259 17.9954ZM17.0439 17.9855L17.0454 18.9855L17.2402 18.9852L17.4206 18.9118L17.0439 17.9855ZM17.3126 17.8762L17.6893 18.8026L17.6894 18.8025L17.3126 17.8762ZM18.1933 17.1252L17.3338 16.614L17.3338 16.614L18.1933 17.1252ZM18.4287 12.5464L17.4287 12.5462V12.5463L18.4287 12.5464ZM18.4293 8.64647L19.1078 7.91183L17.4296 6.36203L17.4293 8.64632L18.4293 8.64647ZM18.7576 8.94964L18.0791 9.68427L18.0791 9.68428L18.7576 8.94964ZM19.5027 9.27867L19.6803 10.2628L19.6805 10.2628L19.5027 9.27867ZM19.9716 8.8348L18.9901 8.64345L19.9716 8.8348ZM15.8416 4.46634L16.5346 3.74546L16.5346 3.74545L15.8416 4.46634ZM10.8849 0.129217L10.578 1.08097L10.5781 1.08101L10.8849 0.129217ZM10.122 0.00289602L10.0881 1.00232L10.0881 1.00232L10.122 0.00289602ZM10.4114 1.24467L10.6545 0.274672L10.6543 0.274635L10.4114 1.24467ZM10.8196 1.3993L10.3384 2.27596L10.3386 2.27606L10.8196 1.3993ZM14.0878 4.46589L14.7805 3.74465L14.7805 3.74465L14.0878 4.46589ZM17.1805 7.43615L18.1805 7.43616L18.1805 7.01006L17.8732 6.71491L17.1805 7.43615ZM17.1804 11.9037L16.1804 11.9037V11.9037L17.1804 11.9037ZM17.1122 16.5L16.2286 16.0316L16.2285 16.0319L17.1122 16.5ZM16.9338 16.7064L17.5104 17.5235L17.5105 17.5234L16.9338 16.7064ZM14.9728 16.7946L14.9672 15.7946L14.9672 15.7946L14.9728 16.7946ZM13.122 16.8051H12.122V17.8108L13.1276 17.8051L13.122 16.8051ZM13.0789 11.69L14.0562 11.4783L14.0562 11.4781L13.0789 11.69ZM11.5689 10.2374L11.7655 9.25697L11.7655 9.25696L11.5689 10.2374ZM8.43122 10.2374L8.23458 9.25696L8.23454 9.25697L8.43122 10.2374ZM6.92121 11.69L5.94391 11.4781L5.94388 11.4783L6.92121 11.69ZM6.87809 16.803L6.87805 17.803L7.87809 17.803V16.803H6.87809ZM5.07321 16.8029L5.07325 15.8029H5.07323L5.07321 16.8029ZM2.90814 16.544L3.72952 15.9736L3.7295 15.9736L2.90814 16.544ZM2.81955 16.4164H1.81955V16.7296L1.99819 16.9869L2.81955 16.4164ZM2.81955 7.43615L2.12687 6.71491L1.81955 7.01006V7.43615H2.81955ZM5.91224 4.46589L5.21955 3.74465L5.91224 4.46589ZM9.18147 1.39874L9.66261 2.27538L9.66264 2.27536L9.18147 1.39874ZM11.434 11.455L11.807 10.5271L11.8068 10.5271L11.434 11.455ZM11.7998 11.7914L10.8974 12.2222L10.8974 12.2223L11.7998 11.7914ZM11.8724 14.3723L12.8724 14.3719V14.3719L11.8724 14.3723ZM11.8732 16.803V17.803H12.8736L12.8732 16.8026L11.8732 16.803ZM8.12687 16.803H7.12687V17.803H8.12687V16.803ZM8.18689 11.8197L7.2697 11.4212L7.26963 11.4214L8.18689 11.8197ZM8.53663 11.4678L8.13259 10.5531L8.13254 10.5531L8.53663 11.4678ZM9.99153 11.3981L9.99091 10.3981H9.99089L9.99153 11.3981ZM9.34922 -0.963545C8.94911 -0.89315 8.57883 -0.760451 8.17833 -0.566235L9.05102 1.23333C9.33236 1.09689 9.52364 1.03649 9.69578 1.0062L9.34922 -0.963545ZM8.17831 -0.566223C7.87618 -0.419698 7.67755 -0.262479 7.11389 0.260347C6.53853 0.79403 5.49679 1.79444 3.48502 3.72788L4.87088 5.16989C6.89135 3.22809 7.91536 2.24484 8.474 1.72667C9.04434 1.19764 9.04796 1.23481 9.05104 1.23332L8.17831 -0.566223ZM3.48502 3.72788C1.257 5.86918 0.174098 6.90298 -0.332448 7.43839C-0.462067 7.5754 -0.572743 7.69924 -0.661192 7.81266C-0.744441 7.9194 -0.847177 8.06559 -0.916591 8.2454C-1.08838 8.69039 -0.917903 9.20635 -0.953032 9.02614L1.01002 8.64346C0.940096 8.28479 1.0508 8.7025 0.949203 8.96569C0.914881 9.05459 0.879724 9.08899 0.915907 9.0426C0.946891 9.00287 1.0075 8.93222 1.12039 8.8129C1.58386 8.32301 2.61048 7.34232 4.87089 5.16988L3.48502 3.72788ZM-0.95303 9.02616C-0.878367 9.40913 -0.640545 9.6879 -0.482886 9.83715C-0.318755 9.99253 -0.0403204 10.1978 0.319604 10.2628L0.675056 8.29459C0.774366 8.31253 0.834332 8.34559 0.852374 8.35611C0.875043 8.36933 0.886563 8.37953 0.892073 8.38475C0.897312 8.38971 0.910712 8.40299 0.928463 8.43034C0.942354 8.45173 0.986699 8.52387 1.01001 8.64345L-0.95303 9.02616ZM0.319803 10.2628C0.563781 10.3068 0.885601 10.3268 1.24432 10.1684C1.52386 10.0449 1.75269 9.83968 1.92096 9.68428L0.564044 8.215C0.484555 8.28841 0.437585 8.32808 0.408949 8.34999C0.380937 8.37143 0.393665 8.35769 0.436473 8.33879C0.459509 8.32862 0.488648 8.31806 0.522816 8.30972C0.557138 8.30134 0.589756 8.29685 0.618762 8.2951C0.673418 8.29181 0.70128 8.29932 0.674858 8.29456L0.319803 10.2628ZM1.92096 9.68427L2.24924 9.3811L0.892313 7.91183L0.56404 8.215L1.92096 9.68427ZM0.570774 8.64662L0.571359 12.5465L2.57136 12.5462L2.57077 8.64632L0.570774 8.64662ZM0.571359 12.5465C0.571669 14.6644 0.570173 15.7463 0.600289 16.3385C0.615235 16.6324 0.640504 16.8874 0.707313 17.1176C0.782544 17.3769 0.900416 17.557 0.945564 17.6325L2.66232 16.6065C2.58896 16.4837 2.61857 16.5275 2.62807 16.5602C2.62915 16.5639 2.6112 16.5022 2.59771 16.2369C2.57095 15.7107 2.57167 14.7044 2.57136 12.5463L0.571359 12.5465ZM0.94555 17.6325C1.07723 17.8528 1.26169 18.0579 1.42582 18.2145C1.5915 18.3727 1.80331 18.5452 2.02612 18.6678L2.99031 16.9155C2.98623 16.9133 2.96377 16.8999 2.92538 16.8703C2.88884 16.8421 2.84778 16.807 2.80664 16.7677C2.76544 16.7284 2.72938 16.6899 2.70134 16.6567C2.67142 16.6213 2.66076 16.6039 2.66234 16.6065L0.94555 17.6325ZM2.02622 18.6678C2.07175 18.6929 2.27626 18.8287 2.59624 18.8974C2.84092 18.9499 3.1585 18.9695 3.60491 18.9814C4.53074 19.0062 6.3554 19.0009 10.1274 18.9954L10.1245 16.9954C6.32753 17.0009 4.54723 17.0059 3.6584 16.9821C3.19746 16.9698 3.05528 16.9504 3.01605 16.9419C3.01378 16.9415 3.02157 16.943 3.03589 16.9479C3.05114 16.9531 3.0653 16.9591 3.07605 16.9643C3.08429 16.9683 3.08637 16.9698 3.0708 16.961C3.06285 16.9565 3.02247 16.9332 2.99021 16.9155L2.02622 18.6678ZM10.1274 18.9954L17.0454 18.9855L17.0425 16.9855L10.1245 16.9954L10.1274 18.9954ZM17.4206 18.9118L17.6893 18.8026L16.936 16.9499L16.6673 17.0591L17.4206 18.9118ZM17.6894 18.8025C17.9757 18.6861 18.243 18.5046 18.4575 18.3217C18.671 18.1396 18.8939 17.9034 19.0528 17.6363L17.3338 16.614C17.3196 16.6379 17.2629 16.7119 17.1597 16.7999C17.0574 16.8871 16.971 16.9356 16.9359 16.9499L17.6894 18.8025ZM19.0528 17.6364C19.0972 17.5616 19.2155 17.3805 19.2911 17.1225C19.3588 16.8913 19.3844 16.6358 19.3996 16.3414C19.43 15.7491 19.4284 14.6671 19.4287 12.5465L17.4287 12.5463C17.4284 14.7078 17.4292 15.7131 17.4022 16.2387C17.3886 16.5032 17.3705 16.5643 17.3717 16.5604C17.3806 16.5297 17.4095 16.4867 17.3338 16.614L19.0528 17.6364ZM19.4287 12.5465L19.4293 8.64662L17.4293 8.64632L17.4287 12.5462L19.4287 12.5465ZM17.7508 9.3811L18.0791 9.68427L19.436 8.215L19.1078 7.91183L17.7508 9.3811ZM18.0791 9.68428C18.2474 9.83968 18.4762 10.0449 18.7558 10.1684C19.1145 10.3268 19.4363 10.3068 19.6803 10.2628L19.3252 8.29456C19.2988 8.29932 19.3267 8.29181 19.3813 8.2951C19.4103 8.29685 19.4429 8.30134 19.4773 8.30972C19.5114 8.31806 19.5406 8.32862 19.5636 8.33879C19.6064 8.35769 19.6191 8.37143 19.5911 8.34999C19.5625 8.32808 19.5155 8.28841 19.436 8.215L18.0791 9.68428ZM19.6805 10.2628C20.0404 10.1978 20.3188 9.99253 20.483 9.83715C20.6406 9.6879 20.8784 9.40913 20.9531 9.02616L18.9901 8.64345C19.0134 8.52387 19.0577 8.45173 19.0716 8.43034C19.0894 8.40299 19.1028 8.38971 19.108 8.38475C19.1135 8.37953 19.125 8.36933 19.1477 8.35611C19.1657 8.34559 19.2257 8.31253 19.325 8.29459L19.6805 10.2628ZM20.9531 9.02616C20.9184 9.20437 21.0881 8.69051 20.9169 8.24616C20.8477 8.06643 20.7452 7.92033 20.6621 7.81364C20.5738 7.70035 20.4635 7.57675 20.3343 7.44018C19.8299 6.90659 18.7517 5.877 16.5346 3.74546L15.1485 5.18722C17.3981 7.35 18.4198 8.3263 18.881 8.81417C18.9933 8.93297 19.0535 9.00322 19.0842 9.04263C19.12 9.08863 19.0849 9.05407 19.0506 8.96511C18.9493 8.7023 19.0596 8.28688 18.9901 8.64345L20.9531 9.02616ZM16.5346 3.74545C14.3132 1.60979 13.2229 0.556466 12.6069 0.0175058C12.2983 -0.252506 12.0534 -0.443779 11.8066 -0.579251C11.5526 -0.718679 11.3158 -0.78254 11.1916 -0.822574L10.5781 1.08101C10.8034 1.15359 10.802 1.1508 10.8442 1.17396C10.8936 1.20108 11.0056 1.27393 11.2899 1.52266C11.8596 2.02118 12.8982 3.02379 15.1485 5.18722L16.5346 3.74545ZM11.1917 -0.822538C10.8154 -0.943886 10.5664 -0.982612 10.1559 -0.99653L10.0881 1.00232C10.3376 1.01078 10.4002 1.02363 10.578 1.08097L11.1917 -0.822538ZM10.1559 -0.99653C9.92104 -1.00449 9.56151 -1.00085 9.34944 -0.963584L9.69555 1.00624C9.67155 1.01046 9.66834 1.00948 9.70026 1.00714C9.72586 1.00525 9.76159 1.00339 9.80559 1.00204C9.89415 0.999316 9.997 0.999232 10.0881 1.00232L10.1559 -0.99653ZM10.1683 2.21468C10.1843 2.21869 10.2239 2.23069 10.273 2.2493C10.2955 2.25782 10.3148 2.26578 10.3293 2.27215C10.3455 2.27931 10.3474 2.28087 10.3384 2.27596L11.3007 0.522641C11.1159 0.421261 10.8495 0.323548 10.6545 0.274672L10.1683 2.21468ZM10.3386 2.27606C10.2884 2.2485 10.2541 2.22352 10.2487 2.21965C10.2427 2.21532 10.2383 2.21204 10.236 2.21027C10.2336 2.20843 10.2322 2.20735 10.2321 2.20726C10.2321 2.20722 10.2346 2.20921 10.2402 2.2139C10.2457 2.21845 10.2529 2.22458 10.2622 2.23253C10.3008 2.26562 10.3589 2.31715 10.4383 2.3891C10.5958 2.5319 10.8191 2.73877 11.1014 3.00364C11.665 3.53246 12.4521 4.28144 13.3952 5.18713L14.7805 3.74465C13.8347 2.8363 13.0414 2.0814 12.4699 1.54514C12.1846 1.27747 11.9516 1.0615 11.7814 0.907243C11.697 0.830671 11.6233 0.765112 11.5644 0.714579C11.5354 0.68972 11.5044 0.663612 11.4742 0.639747C11.4636 0.631275 11.391 0.572216 11.3005 0.522544L10.3386 2.27606ZM13.3952 5.18712L16.4878 8.15738L17.8732 6.71491L14.7805 3.74465L13.3952 5.18712ZM16.1805 7.43613L16.1804 11.9037L18.1804 11.9037L18.1805 7.43616L16.1805 7.43613ZM16.1804 11.9037C16.1804 13.9975 16.1793 15.1068 16.1703 15.709C16.1658 16.0159 16.1594 16.1627 16.1534 16.2337C16.1466 16.3132 16.1464 16.1867 16.2286 16.0316L17.9957 16.9684C18.1098 16.7531 18.1341 16.5443 18.1461 16.4037C18.1589 16.2546 18.1656 16.0435 18.1701 15.7387C18.1793 15.1177 18.1804 13.989 18.1804 11.9037L16.1804 11.9037ZM16.2285 16.0319C16.2443 16.002 16.2571 15.9835 16.262 15.9767C16.2677 15.9685 16.272 15.9634 16.2749 15.96C16.2777 15.9567 16.2832 15.9507 16.2925 15.9418C16.3 15.9346 16.3216 15.9145 16.3571 15.8895L17.5105 17.5234C17.7094 17.383 17.8908 17.1664 17.9958 16.9681L16.2285 16.0319ZM16.3572 15.8894C16.3577 15.8891 16.3986 15.8596 16.4586 15.8307C16.5213 15.8005 16.576 15.7843 16.6123 15.776C16.6596 15.7651 16.6655 15.7706 16.5438 15.7761C16.3174 15.7863 15.8812 15.7895 14.9672 15.7946L14.9785 17.7946C15.8662 17.7896 16.3568 17.7865 16.6337 17.7741C16.7637 17.7682 16.9153 17.7584 17.0588 17.7255C17.2696 17.6772 17.412 17.5929 17.5104 17.5235L16.3572 15.8894ZM14.9672 15.7946L13.1163 15.8051L13.1276 17.8051L14.9785 17.7946L14.9672 15.7946ZM14.122 16.8051V14.347H12.122V16.8051H14.122ZM14.122 14.347C14.122 13.5206 14.1184 12.8833 14.1111 12.4338C14.1075 12.2097 14.1028 12.0263 14.0969 11.8869C14.0927 11.7879 14.0854 11.613 14.0562 11.4783L12.1015 11.9017C12.0868 11.8337 12.0921 11.8182 12.0987 11.9722C12.1036 12.0857 12.1079 12.2489 12.1114 12.4662C12.1184 12.8994 12.122 13.5239 12.122 14.347H14.122ZM14.0562 11.4781C13.8155 10.3681 12.8684 9.47821 11.7655 9.25697L11.3722 11.2179C11.732 11.2901 12.0372 11.6049 12.1016 11.9019L14.0562 11.4781ZM11.7655 9.25696C11.6475 9.2333 11.5032 9.22505 11.419 9.22053C11.3075 9.21456 11.1721 9.20991 11.0247 9.2063C10.7287 9.19905 10.3628 9.19552 10 9.19552C9.63731 9.19552 9.27138 9.19905 8.97539 9.2063C8.828 9.20991 8.69253 9.21456 8.58111 9.22053C8.49685 9.22505 8.35258 9.2333 8.23458 9.25696L8.62786 11.2179C8.57954 11.2276 8.57687 11.2236 8.68815 11.2177C8.77227 11.2132 8.88628 11.2091 9.02433 11.2057C9.29924 11.199 9.64804 11.1955 10 11.1955C10.352 11.1955 10.7008 11.199 10.9757 11.2057C11.1138 11.2091 11.2278 11.2132 11.3119 11.2177C11.4232 11.2236 11.4205 11.2276 11.3722 11.2179L11.7655 9.25696ZM8.23454 9.25697C7.13168 9.47821 6.18456 10.3681 5.94391 11.4781L7.89851 11.9019C7.96288 11.6049 8.26812 11.2901 8.62791 11.2179L8.23454 9.25697ZM5.94388 11.4783C5.91469 11.613 5.90741 11.7878 5.90318 11.8868C5.89723 12.0262 5.89258 12.2095 5.88894 12.4335C5.88164 12.8829 5.87809 13.52 5.87809 14.3459H7.87809C7.87809 13.5232 7.88164 12.899 7.88867 12.466C7.8922 12.2488 7.89652 12.0856 7.90136 11.9721C7.90793 11.8182 7.91327 11.8337 7.89854 11.9017L5.94388 11.4783ZM5.87809 14.3459V16.803H7.87809V14.3459H5.87809ZM6.87813 15.803L5.07325 15.8029L5.07317 17.8029L6.87805 17.803L6.87813 15.803ZM5.07323 15.8029C4.56665 15.8029 4.19969 15.8031 3.92504 15.7994C3.64173 15.7956 3.49861 15.7879 3.42319 15.7789C3.34199 15.7692 3.4553 15.769 3.59871 15.8655C3.73209 15.9553 3.80739 16.0858 3.72952 15.9736L2.08676 17.1144C2.09998 17.1334 2.23994 17.3618 2.48196 17.5247C2.73402 17.6944 2.99995 17.7425 3.18575 17.7647C3.52961 17.8058 4.11303 17.8029 5.07319 17.8029L5.07323 15.8029ZM3.7295 15.9736L3.64092 15.846L1.99819 16.9869L2.08678 17.1144L3.7295 15.9736ZM3.81955 16.4164V11.9263H1.81955V16.4164H3.81955ZM3.81955 11.9263V7.43615H1.81955V11.9263H3.81955ZM3.51224 8.15738L6.60492 5.18712L5.21955 3.74465L2.12687 6.71491L3.51224 8.15738ZM6.60492 5.18712C7.55319 4.2764 8.34028 3.52747 8.90262 2.99989C9.18429 2.73563 9.40657 2.52973 9.56335 2.38771C9.64235 2.31614 9.70009 2.26501 9.73837 2.23221C9.74757 2.22433 9.75475 2.21828 9.76014 2.2138C9.7657 2.20918 9.76814 2.20724 9.76802 2.20733C9.76787 2.20745 9.76649 2.20854 9.76405 2.2104C9.76171 2.21218 9.75735 2.21546 9.75135 2.21977C9.74573 2.22381 9.71198 2.24828 9.66261 2.27538L8.70032 0.522096C8.61062 0.57133 8.53886 0.629559 8.52748 0.638563C8.49726 0.662461 8.46613 0.688563 8.43715 0.713386C8.37827 0.763831 8.30482 0.829176 8.22063 0.90544C8.05103 1.05908 7.81889 1.27423 7.5342 1.54132C6.96384 2.07642 6.17052 2.83132 5.21955 3.74465L6.60492 5.18712ZM9.66264 2.27536C9.80548 2.19696 9.99244 2.17064 10.1684 2.21471L10.6543 0.274635C9.9996 0.110662 9.29431 0.196063 8.70029 0.522111L9.66264 2.27536ZM11.061 12.3828C11.0991 12.3981 11.0471 12.3827 10.9805 12.3214C10.9107 12.2572 10.8868 12.2002 10.8974 12.2222L12.7022 11.3606C12.6275 11.204 12.5175 11.0177 12.3345 10.8494C12.1547 10.684 11.9624 10.5896 11.807 10.5271L11.061 12.3828ZM10.8974 12.2223C10.8268 12.0744 10.8511 11.9418 10.8614 12.3084C10.8705 12.6337 10.8719 13.2257 10.8724 14.3726L12.8724 14.3719C12.8719 13.2406 12.8707 12.6126 12.8606 12.2522C12.8516 11.9331 12.84 11.6491 12.7022 11.3605L10.8974 12.2223ZM10.8724 14.3726L10.8732 16.8033L12.8732 16.8026L12.8724 14.3719L10.8724 14.3726ZM11.8732 15.803H10V17.803H11.8732V15.803ZM10 15.803H8.12687V17.803H10V15.803ZM9.12687 16.803V14.3804H7.12687V16.803H9.12687ZM9.12687 14.3804C9.12687 13.3287 9.12896 12.7317 9.13714 12.3827C9.14129 12.2056 9.14658 12.1165 9.15082 12.0734C9.15619 12.0188 9.1549 12.1011 9.10414 12.218L7.26963 11.4214C7.19293 11.5981 7.17116 11.7685 7.16041 11.8778C7.14853 11.9987 7.14206 12.1495 7.13769 12.3358C7.12884 12.7135 7.12687 13.3371 7.12687 14.3804H9.12687ZM9.10407 12.2182C9.11707 12.1883 9.09755 12.2434 9.0317 12.3097C8.96586 12.3759 8.91082 12.3958 8.94071 12.3826L8.13254 10.5531C7.97675 10.6219 7.78727 10.7246 7.6132 10.8998C7.43912 11.0749 7.33757 11.265 7.2697 11.4212L9.10407 12.2182ZM8.94066 12.3826C8.84535 12.4247 8.77123 12.416 8.92382 12.4087C9.09347 12.4005 9.39357 12.3984 9.99217 12.3981L9.99089 10.3981C9.41294 10.3984 9.05631 10.4 8.828 10.411C8.58263 10.4227 8.36933 10.4485 8.13259 10.5531L8.94066 12.3826ZM9.99216 12.3981C10.5377 12.3977 10.8475 12.4001 11.0342 12.4074C11.2552 12.4162 11.1819 12.4314 11.0612 12.3829L11.8068 10.5271C11.5665 10.4305 11.3129 10.4169 11.113 10.409C10.8789 10.3998 10.5273 10.3977 9.99091 10.3981L9.99216 12.3981Z" fill="#C60000" mask="url(#path-1-inside-1_38_687)"/>
</svg>
