<svg width="18" height="18" viewBox="0 0 18 18" fill="none" xmlns="http://www.w3.org/2000/svg">
<path fill-rule="evenodd" clip-rule="evenodd" d="M8.58186 0.43694C8.52668 0.444847 8.36331 0.467362 8.21877 0.486962C7.3948 0.598732 6.4094 1.0633 5.73921 1.65596C4.89273 2.40455 4.29551 3.48248 4.11355 4.59016C4.04796 4.9894 4.05649 5.89596 4.1293 6.26266C4.36942 7.4718 5.05022 8.59101 5.9699 9.2885L6.19878 9.46209L6.10277 9.49864C5.70038 9.65176 5.52363 9.72888 5.18188 9.90039C3.69604 10.646 2.48708 11.774 1.6285 13.2156C0.925195 14.3965 0.533344 15.7125 0.451141 17.1695L0.428467 17.5716H1.10234H1.77622V17.4076C1.77622 16.2724 2.24803 14.7027 2.87917 13.7385C3.85403 12.249 5.15743 11.2272 6.74708 10.7063C8.25719 10.2115 9.7426 10.2115 11.2527 10.7063C12.8424 11.2272 14.1458 12.249 15.1206 13.7385C15.7518 14.7027 16.2236 16.2724 16.2236 17.4076V17.5716H16.8974H17.5713L17.5486 17.1695C17.4664 15.7125 17.0746 14.3965 16.3713 13.2156C15.5127 11.774 14.3037 10.646 12.8179 9.90039C12.4762 9.72888 12.2994 9.65176 11.897 9.49864L11.801 9.46209L12.0299 9.2885C12.9496 8.59101 13.6304 7.4718 13.8705 6.26266C13.9433 5.89596 13.9518 4.9894 13.8862 4.59016C13.741 3.70605 13.2984 2.77259 12.7071 2.10344C11.9766 1.27659 10.9452 0.692511 9.87195 0.497817C9.61377 0.450978 8.76372 0.410874 8.58186 0.43694ZM9.56562 1.80897C11.533 2.12864 12.8774 3.98437 12.5604 5.94277C12.2413 7.91376 10.389 9.26063 8.43417 8.94304C6.46679 8.62338 5.12239 6.76764 5.43939 4.80925C5.7584 2.83856 7.61111 1.49142 9.56562 1.80897Z" fill="#C60000"/>
</svg>
