<svg width="16" height="17" viewBox="0 0 16 17" fill="none" xmlns="http://www.w3.org/2000/svg">
<path fill-rule="evenodd" clip-rule="evenodd" d="M7.45637 1.03591C7.03531 1.09051 6.69918 1.1895 6.30515 1.37497C4.99828 1.99014 4.22933 3.35662 4.38054 4.79518C4.47064 5.65221 4.77292 6.32805 5.35469 6.9732C5.68562 7.34019 6.19367 7.68868 6.66621 7.8728C8.23967 8.48595 9.96451 7.97045 10.9593 6.58978C11.7432 5.50168 11.8566 4.00256 11.2424 2.84589C10.5476 1.53742 9.06295 0.827663 7.45637 1.03591ZM8.66963 2.10595C9.33797 2.26141 9.93883 2.71169 10.2448 3.28629C10.4606 3.69154 10.5344 4.00067 10.5307 4.4835C10.5249 5.23829 10.2341 5.91845 9.70516 6.41414C9.45742 6.64635 9.30447 6.75029 9.00967 6.88673C8.38027 7.17808 7.61973 7.17808 6.99033 6.88673C6.69553 6.75029 6.54258 6.64635 6.29484 6.41414C5.18452 5.37353 5.18843 3.51393 6.30289 2.5965C6.92209 2.08675 7.80253 1.90427 8.66963 2.10595ZM7.4123 9.90362C5.16871 9.99063 3.39411 10.6397 2.33695 11.76C1.52339 12.6221 1.0855 13.7107 1.00942 15.0602C0.974803 15.6744 1.02676 15.8257 1.31488 15.9495C1.42804 15.9981 1.67693 16 8 16C14.3231 16 14.572 15.9981 14.6851 15.9495C14.9732 15.8257 15.0252 15.6744 14.9906 15.0602C14.8209 12.0505 12.8047 10.2638 9.21948 9.94607C8.62649 9.89352 8.03256 9.87957 7.4123 9.90362ZM8.94032 10.9416C11.036 11.1156 12.3867 11.7249 13.1779 12.8532C13.5363 13.3643 13.8046 14.1112 13.864 14.7634L13.8846 14.9891H8H2.11539L2.13596 14.7634C2.14727 14.6393 2.18776 14.4023 2.22596 14.2369C2.51858 12.9689 3.26652 12.0714 4.48436 11.5267C5.16345 11.223 5.90431 11.0483 6.91275 10.9541C7.37133 10.9112 8.49164 10.9043 8.94032 10.9416Z" fill="black" fill-opacity="0.2"/>
<path d="M7.44352 0.93674L7.44352 0.936741C7.01189 0.99271 6.66575 1.09472 6.26257 1.28449L6.30515 1.37497C4.99828 1.99014 4.22933 3.35662 4.38054 4.79518C4.47064 5.65221 4.77292 6.32805 5.35469 6.9732C5.68562 7.34019 6.19367 7.68868 6.66621 7.8728L6.6299 7.96598C6.6299 7.96598 6.6299 7.96598 6.6299 7.96598C8.24631 8.59586 10.0193 8.0655 11.0404 6.64823C11.8459 5.5302 11.9633 3.9903 11.3307 2.79899C10.6141 1.44939 9.08633 0.723795 7.44352 0.93674ZM10.1565 3.33329L10.2448 3.28629L10.1565 3.33329C10.3641 3.72308 10.4343 4.01566 10.4307 4.48273L10.5307 4.4835L10.4307 4.48273C10.4251 5.21141 10.1448 5.86506 9.63678 6.34117L9.70516 6.41414L9.63678 6.34117C9.39646 6.56642 9.25234 6.66423 8.96767 6.79598L8.96767 6.79599C8.36491 7.075 7.63509 7.075 7.03233 6.79599L7.03233 6.79598C6.74766 6.66423 6.60354 6.56642 6.36322 6.34117L6.36322 6.34117C5.29244 5.33762 5.30319 3.54898 6.36645 2.6737C6.95875 2.1861 7.80637 2.00783 8.64697 2.20335C9.28891 2.35267 9.86495 2.78569 10.1565 3.33329ZM0.909577 15.0546L1.00942 15.0602L0.909577 15.0546C0.892423 15.359 0.894529 15.5698 0.946545 15.7213C0.973901 15.8009 1.01512 15.8651 1.07309 15.9184C1.12962 15.9703 1.19832 16.0083 1.27541 16.0414L1.31488 15.9495L1.27541 16.0414C1.3218 16.0613 1.37483 16.0708 1.51291 16.0778C1.65344 16.0849 1.89484 16.0897 2.32797 16.093C3.19521 16.0995 4.83871 16.1 8 16.1C11.1613 16.1 12.8048 16.0995 13.672 16.093C14.1052 16.0897 14.3466 16.0849 14.4871 16.0778C14.6252 16.0708 14.6782 16.0613 14.7246 16.0414L14.6851 15.9495L14.7246 16.0414C14.8017 16.0083 14.8704 15.9703 14.9269 15.9184C14.9849 15.8651 15.0261 15.8009 15.0535 15.7213C15.1055 15.5698 15.1076 15.359 15.0904 15.0546C15.0043 13.5271 14.4484 12.3016 13.4522 11.4188C12.4579 10.5377 11.0347 10.0066 9.22831 9.84646C8.63092 9.79352 8.03274 9.77949 7.40842 9.80369C5.1506 9.89126 3.34615 10.5448 2.26422 11.6914C1.43223 12.573 0.986785 13.6851 0.909577 15.0546ZM2.3234 14.2593L2.22596 14.2369L2.3234 14.2593C2.60877 13.0228 3.33511 12.1502 4.52519 11.618C5.19141 11.32 5.92084 11.1472 6.92205 11.0536C7.37493 11.0113 8.48935 11.0045 8.93205 11.0412C11.0139 11.2141 12.3292 11.8171 13.0961 12.9106L13.1779 12.8532L13.0961 12.9106C13.4439 13.4067 13.7065 14.1368 13.7645 14.7725L13.7751 14.8891H8H2.22492L2.23554 14.7725C2.24633 14.6542 2.28588 14.4219 2.3234 14.2593Z" stroke="black" stroke-opacity="0.2" stroke-width="0.2"/>
</svg>
