<svg width="12" height="16" viewBox="0 0 12 16" fill="none" xmlns="http://www.w3.org/2000/svg">
<path fill-rule="evenodd" clip-rule="evenodd" d="M5.41596 0.180677C4.00028 0.322231 2.8624 0.843274 1.91324 1.7846C0.240732 3.44331 -0.19092 5.93691 0.829775 8.0436C1.04315 8.484 5.45 15.5541 5.6027 15.701C5.7953 15.8863 6.09796 15.8627 6.26633 15.6493C6.39129 15.4909 10.6331 8.45504 10.7877 8.14974C11.0414 7.64863 11.2075 7.14806 11.3155 6.55919C11.3804 6.20502 11.3882 5.25992 11.3294 4.89115C11.1348 3.67289 10.6062 2.63179 9.75192 1.7846C8.90195 0.941643 7.8249 0.402389 6.63707 0.225026C6.39138 0.188359 5.61955 0.160324 5.41596 0.180677ZM6.47968 1.12776C7.44183 1.26087 8.40855 1.74105 9.10051 2.4296C9.75134 3.07723 10.1742 3.85956 10.3731 4.78403C10.4735 5.25074 10.4739 6.09872 10.3738 6.55919C10.2814 6.98435 10.1475 7.36677 9.96662 7.72224C9.88524 7.88215 8.93747 9.47053 7.86049 11.2519L5.90233 14.4909L3.86353 11.2324C2.7422 9.4402 1.76292 7.85185 1.6874 7.70268C1.38453 7.10457 1.24097 6.54438 1.21387 5.85525C1.13073 3.74001 2.48926 1.86393 4.5371 1.26595C5.15161 1.0865 5.83163 1.03814 6.47968 1.12776ZM5.3306 2.96341C4.28592 3.15987 3.42669 3.95328 3.14345 4.98297C3.04751 5.33185 3.04701 6.00797 3.14243 6.36025C3.35037 7.12771 3.89436 7.78703 4.60629 8.13459C5.04492 8.34875 5.29866 8.40485 5.83258 8.40583C6.365 8.40678 6.61417 8.35172 7.05841 8.13484C7.77287 7.78605 8.31411 7.13009 8.52273 6.36025C8.61815 6.00797 8.61766 5.33185 8.52171 4.98297C8.25906 4.02811 7.47682 3.25346 6.52695 3.00754C6.2002 2.92295 5.65306 2.90278 5.3306 2.96341ZM6.20912 3.86905C6.50424 3.93011 6.85167 4.11408 7.0848 4.33277C7.32202 4.5553 7.46747 4.77304 7.5857 5.08268C7.65356 5.26038 7.6648 5.34002 7.66665 5.65631C7.66893 6.04678 7.63674 6.19131 7.47574 6.51328C7.25138 6.96191 6.76168 7.344 6.26112 7.46101C5.11047 7.73001 3.9838 6.8502 3.98139 5.68076C3.98077 5.38128 4.02725 5.18277 4.16887 4.88025C4.39144 4.40481 4.88818 4.00457 5.41223 3.87848C5.61372 3.82996 5.99824 3.82543 6.20912 3.86905Z" fill="#C60000"/>
</svg>
