<svg width="16" height="15" viewBox="0 0 16 15" fill="none" xmlns="http://www.w3.org/2000/svg">
<path d="M14.9203 13.6626L11.252 9.94962C12.1952 8.85844 12.712 7.48552 12.712 6.05624C12.712 2.71688 9.92031 0 6.48904 0C3.05777 0 0.266113 2.71688 0.266113 6.05624C0.266113 9.3956 3.05777 12.1125 6.48904 12.1125C7.77719 12.1125 9.00473 11.7344 10.0542 11.0166L13.7504 14.7578C13.9049 14.9139 14.1127 15 14.3353 15C14.5461 15 14.7461 14.9218 14.8978 14.7796C15.2204 14.4776 15.2306 13.9768 14.9203 13.6626ZM6.48904 1.57989C9.02529 1.57989 11.0886 3.58793 11.0886 6.05624C11.0886 8.52456 9.02529 10.5326 6.48904 10.5326C3.95279 10.5326 1.88949 8.52456 1.88949 6.05624C1.88949 3.58793 3.95279 1.57989 6.48904 1.57989Z" fill="#E4E4E4"/>
</svg>
