<svg width="22" height="21" viewBox="0 0 22 21" fill="none" xmlns="http://www.w3.org/2000/svg">
<path d="M21.439 19.1277L16.3034 13.9295C17.6238 12.4018 18.3473 10.4797 18.3473 8.47874C18.3473 3.80364 14.439 0 9.6352 0C4.83142 0 0.923096 3.80364 0.923096 8.47874C0.923096 13.1538 4.83142 16.9575 9.6352 16.9575C11.4386 16.9575 13.1572 16.4281 14.6265 15.4232L19.8011 20.6609C20.0174 20.8795 20.3083 21 20.62 21C20.9151 21 21.195 20.8905 21.4075 20.6914C21.859 20.2686 21.8734 19.5675 21.439 19.1277ZM9.6352 2.21185C13.1859 2.21185 16.0746 5.0231 16.0746 8.47874C16.0746 11.9344 13.1859 14.7456 9.6352 14.7456C6.08445 14.7456 3.19582 11.9344 3.19582 8.47874C3.19582 5.0231 6.08445 2.21185 9.6352 2.21185Z" 
fill="grey"/>
</svg>
