<svg width="18" height="21" viewBox="0 0 18 21" fill="none" xmlns="http://www.w3.org/2000/svg">
<path fill-rule="evenodd" clip-rule="evenodd" d="M8.74873 0.0276464C8.69142 0.0472862 6.78785 0.824207 4.51857 1.7541C1.2896 3.07727 0.363256 3.47286 0.257648 3.57373C-0.0182501 3.83731 -0.0117486 3.75542 0.00854783 6.71137C0.027469 9.47055 0.0425558 9.74645 0.227308 10.7134C0.753348 13.467 2.097 15.9832 4.09138 17.9497C5.29096 19.1324 6.62127 20.0402 8.22777 20.7722C8.67229 20.9747 8.75802 21 8.99879 21C9.23939 21 9.32724 20.974 9.78418 20.7681C14.4717 18.6551 17.5581 14.2944 17.9591 9.21807C17.9821 8.92664 18.0005 7.63239 18 6.34195C17.9991 4.14583 17.9942 3.98514 17.9219 3.83131C17.8795 3.74092 17.7899 3.61622 17.7228 3.55422C17.6387 3.47636 16.3128 2.91338 13.4353 1.7338C9.18079 -0.0104005 9.025 -0.0671011 8.74873 0.0276464ZM12.6872 3.2076L16.313 4.69546L16.3109 6.9957C16.3089 9.17103 16.3037 9.32827 16.215 9.8917C16.1635 10.2194 16.0761 10.6816 16.0209 10.9189C15.1885 14.4947 12.7602 17.5101 9.42064 19.1152L8.99441 19.3201L8.44441 19.0459C5.07003 17.3638 2.66405 14.2749 1.91579 10.6643C1.70282 9.63651 1.68532 9.35555 1.68494 6.95531L1.68457 4.6969L5.31042 3.20908C7.30464 2.39079 8.96441 1.72094 8.99879 1.72053C9.03317 1.72012 10.6929 2.38931 12.6872 3.2076ZM11.9161 7.28614C11.8249 7.32485 11.0798 8.02777 9.9268 9.16293L8.08332 10.9779L7.15531 10.071C6.40176 9.33464 6.19017 9.15044 6.02967 9.09107C5.39765 8.85728 4.77771 9.43859 4.95584 10.0979C5.00001 10.2614 5.14667 10.4218 6.26244 11.5273C6.95368 12.2122 7.58487 12.8128 7.66506 12.862C7.85189 12.9766 8.24399 12.9857 8.45833 12.8804C8.5393 12.8406 9.59155 11.8329 10.7966 10.6411C12.8204 8.63964 12.9917 8.45939 13.0404 8.28058C13.2249 7.60198 12.5593 7.0132 11.9161 7.28614Z" fill="#C60000"/>
</svg>
