<svg width="16" height="16" viewBox="0 0 16 16" fill="none" xmlns="http://www.w3.org/2000/svg">
<path fill-rule="evenodd" clip-rule="evenodd" d="M1.15726 0.0489565C0.749669 0.158494 0.353458 0.4692 0.181462 0.81419C-0.0120347 1.20224 0.000152539 0.719247 0.000152539 7.99937C0.000152539 15.2795 -0.0120347 14.7965 0.181462 15.1845C0.289585 15.4014 0.598516 15.7104 0.815387 15.8185C1.20341 16.012 0.720451 15.9998 8 15.9998C15.2795 15.9998 14.7966 16.012 15.1846 15.8185C15.4015 15.7104 15.7104 15.4014 15.8185 15.1845C16.012 14.7965 15.9998 15.2795 15.9998 7.99937C15.9998 0.719247 16.012 1.20224 15.8185 0.81419C15.7104 0.597302 15.4015 0.288346 15.1846 0.180214C14.7964 -0.0133909 15.2822 -0.00129647 7.98563 0.000953665C2.23036 0.00273502 1.3051 0.00923541 1.15726 0.0489565ZM14.6302 1.36319C14.6852 1.41298 14.6874 1.65996 14.6874 7.99393C14.6874 14.072 14.6834 14.5773 14.6357 14.6301C14.5859 14.6851 14.3389 14.6873 8.00544 14.6873C1.9279 14.6873 1.42256 14.6833 1.36978 14.6355C1.31475 14.5858 1.31263 14.3388 1.31263 8.00481C1.31263 1.92679 1.31656 1.42141 1.36435 1.36863C1.41413 1.31359 1.66109 1.31147 7.99456 1.31147C14.0721 1.31147 14.5774 1.31541 14.6302 1.36319Z" fill="#C60000"/>
</svg>
